<?xml version="1.0" standalone="no"?>
<!DOCTYPE svg PUBLIC "-//W3C//DTD SVG 20010904//EN"
 "http://www.w3.org/TR/2001/REC-SVG-20010904/DTD/svg10.dtd">
<svg version="1.0" xmlns="http://www.w3.org/2000/svg"
 width="370.000000pt" height="370.000000pt" viewBox="0 0 370.000000 370.000000"
 preserveAspectRatio="xMidYMid meet">

<g transform="translate(0.000000,370.000000) scale(0.100000,-0.100000)"
fill="#000000" stroke="none">
<path d="M1022 3435 c-54 -17 -116 -59 -145 -98 -12 -17 -58 -109 -103 -206
l-80 -176 -195 -5 c-193 -5 -194 -5 -261 -37 -120 -57 -207 -169 -228 -294
-13 -81 -13 -1960 1 -2034 6 -33 23 -84 37 -113 35 -72 134 -163 209 -194 l58
-23 1509 -3 c1338 -2 1516 -1 1570 13 152 39 266 162 295 319 14 77 15 1944 1
2030 -28 169 -174 313 -338 333 -48 5 -52 8 -63 42 -7 20 -37 61 -68 92 -80
80 -114 89 -325 89 -167 0 -172 -1 -231 -28 -67 -32 -118 -84 -147 -149 l-19
-43 -160 2 -160 3 -75 176 c-82 195 -113 238 -195 284 l-54 30 -395 2 c-312 2
-404 -1 -438 -12z m779 -155 c20 -6 48 -21 61 -35 20 -19 83 -152 135 -282 4
-10 -81 -13 -408 -13 -410 0 -413 0 -436 -22 -30 -29 -32 -87 -2 -114 20 -18
57 -19 1113 -24 l1091 -5 40 -22 c22 -12 54 -36 72 -55 67 -69 63 -5 63 -1099
0 -724 -3 -1002 -12 -1030 -16 -53 -69 -113 -126 -141 l-47 -23 -1490 0
c-1419 0 -1492 1 -1537 18 -57 22 -119 89 -136 145 -9 29 -12 300 -12 1031 0
1094 -4 1030 63 1099 18 19 50 43 72 55 38 21 57 22 342 27 290 5 303 6 323
26 48 48 12 134 -57 134 -18 0 -33 4 -33 9 0 24 115 259 138 284 14 15 40 32
57 36 43 13 682 13 726 1z m1269 -288 c70 -38 54 -42 -170 -42 -224 0 -240 4
-170 42 29 15 58 18 170 18 112 0 141 -3 170 -18z"/>
<path d="M2512 2567 c-21 -23 -22 -31 -22 -258 0 -222 1 -236 20 -257 11 -12
31 -24 43 -27 12 -3 179 -5 370 -3 l349 3 19 24 c18 21 19 42 19 260 0 235 0
238 -23 259 -23 22 -27 22 -388 22 l-366 0 -21 -23z m636 -259 l-3 -122 -220
1 c-121 1 -232 1 -247 2 l-28 1 0 120 0 120 250 0 251 0 -3 -122z"/>
<path d="M1261 2535 c-192 -43 -338 -122 -471 -254 -108 -107 -183 -231 -236
-391 -26 -80 -28 -95 -28 -260 0 -162 2 -181 27 -263 117 -380 447 -641 839
-664 269 -16 544 95 727 294 425 460 285 1192 -280 1463 -135 65 -204 80 -369
85 -104 4 -163 1 -209 -10z m298 -156 c248 -40 456 -196 566 -424 128 -265 94
-568 -89 -803 -89 -113 -217 -201 -371 -253 -62 -21 -88 -24 -225 -24 -144 0
-161 2 -235 28 -117 41 -209 100 -301 191 -276 276 -299 700 -54 1007 169 212
446 321 709 278z"/>
<path d="M1285 2286 c-188 -46 -365 -188 -449 -362 -48 -98 -67 -186 -67 -309
1 -204 91 -388 254 -518 249 -199 608 -193 856 13 110 91 195 236 225 383 32
155 14 286 -60 437 -87 176 -256 311 -444 355 -77 18 -244 18 -315 1z m274
-161 c233 -55 392 -256 392 -497 0 -99 -11 -149 -51 -228 -52 -103 -136 -186
-237 -235 -333 -164 -734 90 -733 463 1 194 110 369 285 456 111 55 225 69
344 41z"/>
<path d="M1345 1956 c-145 -46 -236 -163 -243 -316 -5 -99 22 -175 89 -245 85
-90 197 -128 311 -105 81 16 125 39 181 94 53 54 85 115 96 185 14 92 -9 135
-75 135 -47 0 -71 -27 -84 -93 -5 -29 -19 -68 -29 -85 -58 -93 -212 -102 -283
-18 -97 116 -32 275 123 298 59 9 89 37 89 85 0 70 -73 97 -175 65z"/>
</g>
</svg>
